<svg xmlns="http://www.w3.org/2000/svg" viewBox="0 0 64 64" width="64" height="64">
  <!-- Monitor base -->
  <rect x="18" y="48" width="28" height="6" rx="2" fill="#5D7EEB" />
  <rect x="27" y="44" width="10" height="4" fill="#5D7EEB" />
  
  <!-- Monitor frame -->
  <rect x="8" y="8" width="48" height="36" rx="3" fill="#2A324A" stroke="#5D7EEB" stroke-width="2" />
  
  <!-- Monitor screen -->
  <rect x="12" y="12" width="40" height="28" rx="1" fill="#1E2336" />
  
  <!-- Unlocked padlock inside monitor -->
  <path d="M32 18c-3.3 0-6 2.7-6 6v2h2v-2c0-2.2 1.8-4 4-4s4 1.8 4 4v2h-10v12h12V26h-2v-2c0-3.3-2.7-6-6-6z" fill="#5D7EEB" />
  <rect x="26" y="26" width="12" height="10" rx="1" fill="#5D7EEB" />
  
  <!-- Power indicator -->
  <circle cx="32" cy="42" r="1" fill="#7AFFB6" />
</svg>